<svg width="36" height="25" version="1.1" viewBox="0 0 36 25" xmlns="http://www.w3.org/2000/svg">
	<style type="text/css">.st0{fill:#E38506;}
	.st1{fill:#FFFFFF;}</style>
	<g transform="matrix(.26556 0 0 .26556 -3.5903 -6.2619)">
		<path class="st0" d="m133.8 48.1v-6.2c0-3.6-1.9-5.1-5.9-5.2h-2.2c-4 0-5.9 1.7-5.9 5.3l-0.1 14.4c0 1.7 0.2 3.1 1 3.7s2 1.4 3.8 2.3l13.2 6.3c2.9 1.5 5 2.6 6.2 3.4s2.2 1.8 2.8 2.9c0.7 1.1 1 3.3 1 6.5l-0.2 19.3c-0.1 10.2-5.8 15.2-17.1 15.1l-8.6-0.1c-11.2-0.1-16.8-5.7-16.7-16.8v-6l14.1 0.1v6.2c0 3.5 2 5.2 6.2 5.2h2.4c3.7 0 5.4-1.4 5.5-4.9l0.1-15.4c0-1.7-0.2-2.8-1-3.4s-2-1.4-3.8-2.3l-13.1-6.5c-2.9-1.4-5-2.5-6.3-3.5-1.3-0.9-2.2-2.1-2.8-3.6s-0.8-3.4-0.8-5.7l0.1-18.5c0.1-10.3 5.7-15.4 16.9-15.3l8.8 0.1c11.2 0.1 16.8 5.3 16.7 15.6l-0.1 7.1z" fill="#e38506"/>
		<polygon class="st1" points="88.6 69.7 100.2 115 87.4 115 79.9 80.9 79.6 80.9 70.6 115 58.3 115 70.9 69.7 58.3 25.4 71.3 25.4 79.6 58.5 79.9 58.5 88.2 25.4 100.5 25.4" fill="#fff"/>
		<polygon class="st1" points="28.5 115 14.5 115 14.5 25.4 51.1 25.4 54.2 36.6 28.5 36.6 28.5 62.7 46.1 62.7 46.1 74.1 28.5 74.1" fill="#fff"/>
	</g>
</svg>
